<svg width="313" height="40" viewBox="0 0 313 40" fill="none" xmlns="http://www.w3.org/2000/svg">
<path fill-rule="evenodd" clip-rule="evenodd" d="M92.8421 10.696C92.5923 9.47228 91.7184 8.7983 90.42 8.7983C89.0968 8.7983 88.2477 9.47228 88.0479 10.696H92.8421ZM90.1954 5.72672C94.3153 5.72672 97.112 8.19898 97.112 11.9442C97.112 12.3935 97.0868 12.868 96.9867 13.3427H87.998V13.3929C88.1978 14.8906 88.9468 15.7896 90.495 15.7896C91.6936 15.7896 92.4674 15.3148 92.7172 14.3663H96.962C96.6124 16.8382 94.3902 18.9107 90.7943 18.9107C86.1752 18.9107 83.5034 16.3638 83.5034 12.3688C83.5034 8.29843 86.1752 5.72672 90.1954 5.72672V5.72672Z" fill="#112A85"/>
<path fill-rule="evenodd" clip-rule="evenodd" d="M106.573 13.3676H104.75C103.502 13.3676 102.703 13.9171 102.703 14.7906C102.703 15.49 103.252 15.9397 104.126 15.9397C105.599 15.9397 106.548 14.9654 106.573 13.4172V13.3676ZM111.916 15.2155V18.7608H109.744C107.946 18.7608 107.322 17.8866 107.322 16.7633V16.6632C106.374 18.1615 105.075 18.9108 103.202 18.9108C100.431 18.9108 98.3584 17.6375 98.3584 15.1154C98.3584 12.2939 100.555 10.6961 104.675 10.6961H106.573V10.1966C106.573 9.29762 105.799 8.6983 104.625 8.6983C103.577 8.6983 102.828 9.19752 102.753 9.94683H98.6078C98.8325 7.20001 101.23 5.7265 104.825 5.7265C108.596 5.7265 110.843 7.3249 110.843 10.446V14.4414C110.843 15.0903 111.118 15.2155 111.642 15.2155H111.916Z" fill="#112A85"/>
<path fill-rule="evenodd" clip-rule="evenodd" d="M113.413 18.7607H117.732V1.28238H113.413V18.7607Z" fill="#112A85"/>
<path fill-rule="evenodd" clip-rule="evenodd" d="M121.027 9.44746H119.004V5.87666H121.027V2.25598H125.347V5.87666H128.118V9.44746H125.347V14.017C125.347 14.8407 125.696 15.1902 126.52 15.1902H128.118V18.7607H124.897C122.45 18.7607 121.027 17.4623 121.027 14.8905V9.44746Z" fill="#112A85"/>
<path fill-rule="evenodd" clip-rule="evenodd" d="M142.973 11.8694V18.7609H138.654V12.0442C138.654 10.2211 138.054 9.17248 136.531 9.17248C135.033 9.17248 134.184 10.2211 134.184 12.0442V18.7609H129.864V1.28256H134.184V7.20008C135.008 6.30143 136.082 5.72657 137.78 5.72657C140.327 5.72657 142.973 7.00053 142.973 11.8694" fill="#112A85"/>
<path fill-rule="evenodd" clip-rule="evenodd" d="M145.693 18.7607H148.565V1.28238H145.693V18.7607Z" fill="#3E3E3E"/>
<path fill-rule="evenodd" clip-rule="evenodd" d="M163.621 11.7194V18.7609H160.899V11.8694C160.899 9.44737 159.876 8.14896 157.853 8.14896C155.706 8.14896 154.432 9.72192 154.432 12.3187V18.7609H151.735V5.97668H154.083L154.382 7.64942C155.181 6.65067 156.405 5.82669 158.477 5.82669C161.223 5.82669 163.621 7.29988 163.621 11.7194" fill="#3E3E3E"/>
<path fill-rule="evenodd" clip-rule="evenodd" d="M168.463 14.541C168.563 15.8646 169.786 16.8134 171.634 16.8134C173.256 16.8134 174.38 16.1642 174.38 15.1156C174.38 13.767 173.232 13.6421 171.284 13.393C168.413 13.0428 166.115 12.4434 166.115 9.79672C166.115 7.37468 168.288 5.77661 171.309 5.80171C174.43 5.8265 176.627 7.27522 176.802 9.89683H174.181C174.055 8.74808 172.932 7.89932 171.359 7.89932C169.786 7.89932 168.737 8.54853 168.737 9.57206C168.737 10.7707 169.961 10.8708 171.784 11.0955C174.655 11.4202 177.027 12.0694 177.027 14.9154C177.027 17.3625 174.73 18.9107 171.659 18.9107C168.263 18.9107 165.941 17.3126 165.866 14.541H168.463Z" fill="#3E3E3E"/>
<path fill-rule="evenodd" clip-rule="evenodd" d="M190.933 5.97659V18.7608H188.561L188.262 17.138C187.462 18.1116 186.289 18.9108 184.316 18.9108C181.595 18.9108 179.272 17.4373 179.272 13.0181V5.97659H181.969V12.7435C181.969 15.2402 182.968 16.5638 184.941 16.5638C186.988 16.5638 188.236 14.9654 188.236 12.3187V5.97659H190.933Z" fill="#3E3E3E"/>
<path fill-rule="evenodd" clip-rule="evenodd" d="M200.894 5.97659V8.49842H199.695C197.298 8.49842 196.525 10.3714 196.525 12.3438V18.7608H193.828V5.97659H196.225L196.525 7.8991C197.174 6.82568 198.197 5.97659 200.295 5.97659H200.894Z" fill="#3E3E3E"/>
<path fill-rule="evenodd" clip-rule="evenodd" d="M210.556 13.068H207.21C205.562 13.068 204.613 13.6921 204.613 14.9905C204.613 16.0639 205.512 16.8132 206.985 16.8132C209.233 16.8132 210.531 15.49 210.556 13.5173V13.068ZM214.601 16.4138V18.7609H213.178C211.43 18.7609 210.831 17.9868 210.831 16.7135C209.982 18.0115 208.684 18.9108 206.611 18.9108C203.814 18.9108 201.867 17.5374 201.867 15.1656C201.867 12.5437 203.764 11.0702 207.335 11.0702H210.556V10.2961C210.556 8.87343 209.482 7.99923 207.734 7.99923C206.161 7.99923 205.088 8.74822 204.888 9.87186H202.241C202.516 7.30014 204.638 5.82663 207.859 5.82663C211.255 5.82663 213.227 7.45013 213.227 10.4712V15.5148C213.227 16.164 213.552 16.4138 214.077 16.4138H214.601Z" fill="#3E3E3E"/>
<path fill-rule="evenodd" clip-rule="evenodd" d="M228.207 11.7194V18.7609H225.485V11.8694C225.485 9.44737 224.462 8.14896 222.44 8.14896C220.292 8.14896 219.018 9.72192 219.018 12.3187V18.7609H216.322V5.97668H218.669L218.968 7.64942C219.768 6.65067 220.991 5.82669 223.064 5.82669C225.81 5.82669 228.207 7.29988 228.207 11.7194" fill="#3E3E3E"/>
<path fill-rule="evenodd" clip-rule="evenodd" d="M236.795 18.9108C232.95 18.9108 230.428 16.2889 230.428 12.3438C230.428 8.42342 232.975 5.8266 236.87 5.8266C240.091 5.8266 242.188 7.64933 242.688 10.521H239.916C239.567 9.07263 238.418 8.12409 236.795 8.12409C234.623 8.12409 233.2 9.84672 233.2 12.3438C233.2 14.8656 234.623 16.6133 236.795 16.6133C238.468 16.6133 239.616 15.6648 239.941 14.1665H242.688C242.188 17.0881 240.066 18.9108 236.795 18.9108" fill="#3E3E3E"/>
<path fill-rule="evenodd" clip-rule="evenodd" d="M254.197 10.9705C253.972 9.07278 252.599 7.99936 250.726 7.99936C249.003 7.99936 247.53 9.14778 247.33 10.9705H254.197ZM250.626 5.82675C254.322 5.82675 256.869 8.17413 256.943 11.9194C256.943 12.2438 256.918 12.5937 256.869 12.9429H247.231V13.0929C247.355 15.2903 248.679 16.7133 250.801 16.7133C252.449 16.7133 253.647 15.8896 254.022 14.4663H256.719C256.269 16.9881 254.147 18.911 251.001 18.911C246.956 18.911 244.409 16.3141 244.409 12.3935C244.409 8.42325 246.931 5.82675 250.626 5.82675V5.82675Z" fill="#3E3E3E"/>
<path fill-rule="evenodd" clip-rule="evenodd" d="M260.063 15.5148C261.062 15.5148 261.811 16.2142 261.811 17.2129C261.811 18.2117 261.062 18.9108 260.063 18.9108C259.065 18.9108 258.34 18.2117 258.34 17.2129C258.34 16.2142 259.065 15.5148 260.063 15.5148" fill="#404041"/>
<path fill-rule="evenodd" clip-rule="evenodd" d="M269.551 18.9108C265.705 18.9108 263.184 16.2889 263.184 12.3438C263.184 8.42342 265.731 5.8266 269.625 5.8266C272.847 5.8266 274.944 7.64933 275.444 10.521H272.672C272.322 9.07263 271.174 8.12409 269.551 8.12409C267.379 8.12409 265.956 9.84672 265.956 12.3438C265.956 14.8656 267.379 16.6133 269.551 16.6133C271.224 16.6133 272.372 15.6648 272.697 14.1665H275.444C274.944 17.0881 272.822 18.9108 269.551 18.9108" fill="#3E3E3E"/>
<path fill-rule="evenodd" clip-rule="evenodd" d="M287.453 12.3687C287.453 9.89679 285.954 8.12395 283.682 8.12395C281.41 8.12395 279.937 9.89679 279.937 12.3687C279.937 14.8407 281.41 16.6135 283.682 16.6135C285.954 16.6135 287.453 14.8407 287.453 12.3687M277.165 12.3687C277.165 8.47349 279.787 5.82678 283.682 5.82678C287.577 5.82678 290.199 8.47349 290.199 12.3687C290.199 16.2887 287.577 18.9107 283.682 18.9107C279.787 18.9107 277.165 16.2887 277.165 12.3687" fill="#3E3E3E"/>
<path fill-rule="evenodd" clip-rule="evenodd" d="M312.12 11.5446V18.7609H309.423V11.5701C309.423 9.32278 308.499 8.14893 306.751 8.14893C304.904 8.14893 303.73 9.54745 303.73 11.8443V18.7609H301.008V11.5701C301.008 9.32278 300.085 8.14893 298.312 8.14893C296.464 8.14893 295.316 9.64755 295.316 11.9193V18.7609H292.619V5.97665H294.966L295.266 7.64939C295.99 6.70085 297.088 5.85177 299.011 5.82666C300.709 5.82666 302.207 6.50097 302.956 8.14893C303.805 6.75074 305.253 5.82666 307.376 5.82666C309.923 5.82666 312.12 7.27506 312.12 11.5446" fill="#3E3E3E"/>
<path fill-rule="evenodd" clip-rule="evenodd" d="M74.2935 30.9563C74.2935 29.0195 73.107 27.6757 71.3449 27.6757C69.5998 27.6757 68.4132 29.0195 68.4132 30.9217C68.4132 32.8759 69.5998 34.2366 71.3449 34.2366C73.107 34.2366 74.2935 32.8928 74.2935 30.9563M75.7595 30.9563C75.7595 33.6787 73.9446 35.5102 71.4844 35.5102C69.9835 35.5102 68.9717 34.8998 68.4311 34.0452L68.2391 35.4059H67V23.1919H68.4311V27.9379C69.0242 27.1181 69.9835 26.4024 71.4844 26.4024C73.9446 26.4024 75.7595 28.0598 75.7595 30.9563" fill="#3E3E3E"/>
<path fill-rule="evenodd" clip-rule="evenodd" d="M77.8507 26.5066L80.5903 33.7656L83.2423 26.5066H84.7605L80.6601 36.9063C80.1019 38.3368 79.7703 38.8953 78.5139 38.8953H76.804V37.5865H78.0776C78.8974 37.5865 79.02 37.3771 79.3689 36.5398L79.8224 35.4755L76.3325 26.5066H77.8507Z" fill="#3E3E3E"/>
<path fill-rule="evenodd" clip-rule="evenodd" d="M99.7101 23.1917V25.4426H96.1853V35.4057H93.5683V25.4426H90.0435V23.1917H99.7101Z" fill="#3E3E3E"/>
<path fill-rule="evenodd" clip-rule="evenodd" d="M106.164 30.9216C106.164 29.4034 105.309 28.3391 103.93 28.3391C102.552 28.3391 101.714 29.4034 101.714 30.9216C101.714 32.4395 102.552 33.5034 103.93 33.5034C105.309 33.5034 106.164 32.4395 106.164 30.9216M99.2017 30.9216C99.2017 28.165 101.069 26.3325 103.93 26.3325C106.792 26.3325 108.659 28.165 108.659 30.9216C108.659 33.6958 106.792 35.5101 103.93 35.5101C101.069 35.5101 99.2017 33.6785 99.2017 30.9216" fill="#3E3E3E"/>
<path fill-rule="evenodd" clip-rule="evenodd" d="M116.734 30.8691C116.734 29.3685 115.897 28.3045 114.553 28.3045C113.21 28.3045 112.355 29.3516 112.355 30.8518C112.355 32.3524 113.21 33.3818 114.553 33.3818C115.897 33.3818 116.734 32.3524 116.734 30.8691V30.8691ZM119.16 26.4375V35.1435C119.16 37.3598 117.799 39 114.361 39C111.866 39 110.156 37.8659 110.034 35.7895H112.512C112.738 36.6448 113.419 37.1329 114.553 37.1329C115.932 37.1329 116.752 36.4527 116.752 35.0565V34.1148C116.158 34.8651 115.268 35.3532 114.012 35.3532C111.605 35.3715 109.842 33.6084 109.842 30.8348C109.842 28.0949 111.605 26.3152 113.995 26.3152C115.286 26.3152 116.193 26.8914 116.787 27.6759L116.996 26.4375H119.16Z" fill="#3E3E3E"/>
<path fill-rule="evenodd" clip-rule="evenodd" d="M127.375 29.8749C127.2 28.7754 126.433 28.165 125.316 28.165C124.251 28.165 123.449 28.81 123.309 29.8749H127.375ZM125.211 26.3325C127.933 26.3325 129.8 28.0078 129.835 30.6425C129.835 30.9043 129.818 31.201 129.765 31.4798H123.257V31.5496C123.362 32.8412 124.095 33.6433 125.368 33.6433C126.363 33.6433 127.061 33.207 127.27 32.3694H129.696C129.416 34.1148 127.898 35.5101 125.543 35.5101C122.507 35.5101 120.692 33.7131 120.692 30.9389C120.692 28.1295 122.507 26.3325 125.211 26.3325V26.3325Z" fill="#3E3E3E"/>
<path fill-rule="evenodd" clip-rule="evenodd" d="M131.892 28.5134H130.409V26.4376H131.892V23.9249H134.352V26.4376H136.393V28.5134H134.352V32.4396C134.352 33.0679 134.596 33.3294 135.224 33.3294H136.498V35.4058H134.457C132.747 35.4058 131.892 34.5512 131.892 32.841V28.5134Z" fill="#3E3E3E"/>
<path fill-rule="evenodd" clip-rule="evenodd" d="M146.442 30.5379V35.4058H143.982V30.6422C143.982 29.1762 143.388 28.3565 142.167 28.3565C140.911 28.3565 140.16 29.2636 140.16 30.7994V35.4058H137.7V23.1918H140.16V27.5364C140.736 26.8386 141.539 26.3325 142.812 26.3325C144.679 26.3325 146.442 27.2922 146.442 30.5379" fill="#3E3E3E"/>
<path fill-rule="evenodd" clip-rule="evenodd" d="M154.5 29.8749C154.325 28.7754 153.558 28.165 152.441 28.165C151.376 28.165 150.574 28.81 150.434 29.8749H154.5ZM152.336 26.3325C155.058 26.3325 156.925 28.0078 156.96 30.6425C156.96 30.9043 156.943 31.201 156.89 31.4798H150.382V31.5496C150.487 32.8412 151.22 33.6433 152.493 33.6433C153.488 33.6433 154.186 33.207 154.395 32.3694H156.82C156.541 34.1148 155.023 35.5101 152.668 35.5101C149.632 35.5101 147.817 33.7131 147.817 30.9389C147.817 28.1295 149.632 26.3325 152.336 26.3325V26.3325Z" fill="#3E3E3E"/>
<path fill-rule="evenodd" clip-rule="evenodd" d="M163.937 26.4375V28.671H162.96C161.494 28.671 160.936 29.648 160.936 31.009V35.4057H158.476V26.4375H160.709L160.936 27.7809C161.425 26.9781 162.123 26.4375 163.518 26.4375H163.937Z" fill="#3E3E3E"/>
<path fill-rule="evenodd" clip-rule="evenodd" d="M167.058 23.1746V28.496H173.375V23.1746H174.893V35.4058H173.375V29.8923H167.058V35.4058H165.541V23.1746H167.058Z" fill="#3E3E3E"/>
<path fill-rule="evenodd" clip-rule="evenodd" d="M183.875 30.0491C183.736 28.5133 182.637 27.6587 181.153 27.6587C179.845 27.6587 178.641 28.6014 178.501 30.0491H183.875ZM181.136 26.4023C183.579 26.4023 185.289 27.99 185.359 30.6253C185.359 30.8167 185.341 31.026 185.324 31.2357H178.414V31.358C178.467 33.0855 179.566 34.2365 181.224 34.2365C182.48 34.2365 183.457 33.5736 183.754 32.4219H185.201C184.852 34.2019 183.387 35.5101 181.328 35.5101C178.659 35.5101 176.914 33.6786 176.914 30.9562C176.914 28.2166 178.624 26.4023 181.136 26.4023V26.4023Z" fill="#3E3E3E"/>
<path fill-rule="evenodd" clip-rule="evenodd" d="M193.034 31.34H190.277C189.003 31.34 188.287 31.8115 188.287 32.8233C188.287 33.6959 189.038 34.289 190.224 34.289C192.004 34.289 193.034 33.2596 193.034 31.7763V31.34ZM195.494 34.0966V35.4058H194.709C193.522 35.4058 193.121 34.8997 193.103 34.0268C192.545 34.8296 191.655 35.5101 190.119 35.5101C188.165 35.5101 186.839 34.5332 186.839 32.9101C186.839 31.131 188.078 30.1362 190.416 30.1362H193.034V29.5258C193.034 28.3744 192.213 27.676 190.817 27.676C189.561 27.676 188.724 28.2691 188.549 29.1762H187.118C187.328 27.4321 188.741 26.4023 190.888 26.4023C193.156 26.4023 194.465 27.5364 194.465 29.6128V33.452C194.465 33.8879 194.691 34.0966 195.058 34.0966H195.494Z" fill="#3E3E3E"/>
<path fill-rule="evenodd" clip-rule="evenodd" d="M196.765 35.4056H198.195V23.1917H196.765V35.4056Z" fill="#3E3E3E"/>
<path fill-rule="evenodd" clip-rule="evenodd" d="M200.916 27.8157H199.311V26.5065H200.916V24.0121H202.347V26.5065H204.598V27.8157H202.347V33.0677C202.347 33.818 202.609 34.0968 203.324 34.0968H204.877V35.4056H203.237C201.527 35.4056 200.916 34.6556 200.916 33.0853V27.8157Z" fill="#3E3E3E"/>
<path fill-rule="evenodd" clip-rule="evenodd" d="M214.036 30.45V35.4056H212.605V30.538C212.605 28.6882 211.715 27.7113 210.18 27.7113C208.522 27.7113 207.493 28.9494 207.493 30.9564V35.4056H206.062V23.1917H207.493V27.9725C208.016 27.1352 208.923 26.4025 210.424 26.4025C212.413 26.4025 214.036 27.5017 214.036 30.45" fill="#3E3E3E"/>
<path fill-rule="evenodd" clip-rule="evenodd" d="M71.6207 1.28265V7.99937H77.4384V1.28265H82.0328V18.761H77.4384V11.8943H71.6207V18.761H67.0264V1.28265H71.6207Z" fill="#112A85"/>
<path fill-rule="evenodd" clip-rule="evenodd" d="M29.2438 4.07847C34.9278 -1.60512 43.8802 -1.08921 48.988 4.01898C54.4569 9.48753 54.4569 18.3541 48.988 23.823L36.5432 36.2678C31.5632 41.2482 23.4874 41.2434 18.5129 36.2576L6.65239 24.3697C6.35289 24.0699 6.55529 23.557 6.97889 23.5502C8.31056 23.5293 10.3004 22.9932 12.0932 21.2291C13.5914 19.7555 23.5599 9.76241 29.2438 4.07847" fill="#2690F4"/>
<path fill-rule="evenodd" clip-rule="evenodd" d="M0.04938 15.7084C-0.291143 11.6102 1.13112 7.39913 4.26626 4.26365C9.77173 -1.24147 18.5891 -1.4155 24.3035 3.74158C21.954 6.42748 10.9471 17.17 9.78096 18.3362C5.83075 22.2864 0.404605 19.9828 0.04938 15.7084" fill="#112A85"/>
</svg>
