<svg width="24px" height="24px" viewBox="0 0 24 24" fill="none" xmlns="http://www.w3.org/2000/svg" style="min-width: 24px;"><path d="M23.2222 3.31924L12.3131 0.0466227C12.109 -0.0155409 11.891 -0.0155409 11.6869 0.0466227L0.777818 3.31924C0.316164 3.45755 0 3.88238 0 4.3643C0 19.114 11.4785 23.8756 11.5942 23.9225C11.8549 24.0258 12.1451 24.0258 12.4058 23.9225C12.5215 23.8756 24 19.114 24 4.3643C24 3.88238 23.6838 3.45755 23.2222 3.31924Z" fill="#672873"></path><path d="M14.3413 6.5452C13.4416 6.54304 12.5861 6.93474 11.9999 7.61719C11.4137 6.93474 10.5581 6.54304 9.65847 6.5452C8.41497 6.54241 7.28965 7.28151 6.79827 8.42378C6.30689 9.56605 6.54417 10.8913 7.40137 11.7921L11.6424 16.1995C11.7359 16.2968 11.8649 16.3518 11.9999 16.3518C12.1348 16.3518 12.2639 16.2968 12.3574 16.1995L16.5984 11.7921L16.6018 11.7886C17.4571 10.8871 17.6926 9.5626 17.2007 8.4215C16.7087 7.2804 15.5839 6.54234 14.3413 6.5452Z" fill="#FFC458"></path></svg>